# xmcd
#
# Track frame offsets:
#	150
#	13350
#	24520
#	38075
#	52035
#	64430
#	75870
#	86325
#	100160
#	112140
#	126490
#	140390
#	154670
#	167690
#	178635
#	188780
#	198695
#	211445
#	222335
#	235810
#
# Disc length: 3295 seconds
#
# Revision: 0
# Processed by: cddbd v1.5.2PL0 Copyright (c) Steve Scherf et al.
# Submitted via: dBpowerAMP V4.0
#
DISCID=1f0cdd14
DTITLE=Lefty Frizzell  - A Heart On The Highway
DYEAR=2008
DGENRE=Country
TTITLE0=If You've Got The Money (I've Got The Time) 
TTITLE1=Look What Thoughts Will Do
TTITLE2=I Want To be With You Always
TTITLE3=Always Late (With Your Kisses) 
TTITLE4=I Love You A Thousand Ways 
TTITLE5=Shine Shave Shower (It's Sarturday)
TTITLE6=Give Me More More More (Of Your Kisses)
TTITLE7=Mom And Dad's Waltz
TTITLE8=My Rough And Rowdy Ways
TTITLE9=Making Believe
TTITLE10=Run'em Off
TTITLE11=Hopeless Love
TTITLE12=These Hands
TTITLE13=Cold Feet
TTITLE14=My Baby's Just Like Money
TTITLE15=The Brakeman's Blues 
TTITLE16=My Old Pal
TTITLE17=How Long Will It Take To Stop Loving You
TTITLE18=It Gets Late So Early
TTITLE19=If you Can Spare The Time (I Won't Miss The Money)
EXTD=
EXTT0=
EXTT1=
EXTT2=
EXTT3=
EXTT4=
EXTT5=
EXTT6=
EXTT7=
EXTT8=
EXTT9=
EXTT10=
EXTT11=
EXTT12=
EXTT13=
EXTT14=
EXTT15=
EXTT16=
EXTT17=
EXTT18=
EXTT19=
PLAYORDER=
